# xmcd
#
# Track frame offsets: 
#        150
#        19260
#        41660
#        56280
#        71972
#        95122
#        116357
#        142345
#        161332
#        181827
#        203740
#        223457
#        241735
#        263600
#        281345
#
# Disc length: 3979 seconds
#
# Revision: 0
# Processed by: cddbd v1.5.2PL0 Copyright (c) Steve Scherf et al.
# Submitted via: ExactAudioCopy v0.99pb5
#
DISCID=de0f890f
DTITLE=Little Milton - The Blues Is Alright - The Best Of Little Milto
DTITLE=n On Malaco
DYEAR=1900
DGENRE=Blues
TTITLE0=The Blues Is Alright
TTITLE1=Nobody's Sleeping In My Bed
TTITLE2=Comeback Kind Of Loving
TTITLE3=Why Can't We Be Together
TTITLE4=Annie Mae's Cafe
TTITLE5=Room 244
TTITLE6=A Possum In My Tree
TTITLE7=I Was Tryin' Not To Break Down
TTITLE8=Caught In The Act (Of Gettin' It On)
TTITLE9=Your Wife Is Cheatin' On Us
TTITLE10=That's The Way I Feel About It
TTITLE11=Strugglin' Lady
TTITLE12=My Dog And Me
TTITLE13=A Man Needs A Woman
TTITLE14=Baby Please
EXTD=
EXTT0=
EXTT1=
EXTT2=
EXTT3=
EXTT4=
EXTT5=
EXTT6=
EXTT7=
EXTT8=
EXTT9=
EXTT10=
EXTT11=
EXTT12=
EXTT13=
EXTT14=
PLAYORDER=
